<svg version="1.0" xmlns="http://www.w3.org/2000/svg" width="10666.667" height="10666.667" viewBox="0 0 8000 8000"><path d="M3944 1626.6c-94.3 2.1-177.9 7-263.5 15.5-581 57.6-1124.6 273.1-1555.2 616.5-388 309.4-664.3 706.7-795.8 1143.9-48.3 160.6-76 318.9-85.5 489-.5 9.3-1.5 37.6-2.1 62.7-2.1 76.9.9 160.4 8.6 241.3 42 440.6 224.3 858.5 529.6 1214 43.8 51 78.7 88.5 130.3 140 56.6 56.5 104.7 100.6 164 150.3l20.9 17.5-.6 16.4c-2.3 57.1-12.7 128.3-27.7 189.3-32 130-91 255.2-168.8 358.4l-7.5 9.8 11.4-.6c89.1-5.3 168.6-19.3 251.4-44.1 143.2-43 281-117.8 392.5-213 5.2-4.5 10-8.4 10.7-8.8.6-.4 11.6 4.7 24.5 11.5 76.2 39.8 171.5 83.2 260.6 118.7 315 125.5 650.8 197.7 1000.7 215.1 95.4 4.7 219.6 4.7 315 0 491.4-24.5 957.3-157.7 1365.8-390.7 329.2-187.7 610.9-437.1 819.9-725.8 231.9-320.5 370.4-681.1 406.3-1058 4.9-52.2 7-88.3 8.6-149.8 2.5-91.7-2.3-192.8-13.7-288.7-28.4-241.3-100.5-478.9-212.5-701-300.5-595.8-875.1-1062.4-1582.9-1285.5-254-80-520-127.2-792.5-140.5-55.7-2.7-164.5-4.5-212.5-3.4zm1428.5 1050.7c74.2 9 137.9 28.6 199 61.5 57.5 30.9 105.5 69 151 119.7 209.1 233.3 350.7 504.4 413.9 792.5 50.2 229 50.2 469.2 0 698-63.2 288-206 561.3-414 792.5-36.5 40.6-67 67.3-107.4 94-23.1 15.3-34.8 22-60.1 34.5-58.8 29-118.7 45.9-188.9 53.2-18.5 1.9-2713.5 1.9-2732 0-70.2-7.3-130.1-24.2-188.9-53.2-25.3-12.5-37-19.2-60.1-34.5-40.4-26.7-70.9-53.4-107.4-94-137.2-152.5-247.6-325.8-324.1-508.6-114.5-273.7-152.8-569.6-111.4-862.4 46.7-330.8 197.9-647.6 435.4-912 51.6-57.4 100.5-95.1 165.5-127.3 65.4-32.6 129.8-49.9 206-55.5 2.5-.2 612.9-.3 1356.5-.3 1296.7.1 1352.6.2 1367 1.9z"/><path d="M2948.5 3513.1c-112.3 7.3-219.8 54.7-306.5 135.1-41.7 38.6-78.3 88.3-98.1 133-25.2 56.7-27.4 108.1-6 143.2 12.8 21.1 30.7 38.3 48.9 46.8 13.3 6.3 25.1 8.9 42.7 9.5 26.4.9 46.5-2.5 113-19.2 22.6-5.7 50.3-12.4 61.6-14.9 119.8-26.7 222.2-26.9 341.8-.6 9.8 2.2 35.9 8.5 58.2 14 73.5 18.4 85 20.5 113.9 20.4 19.1 0 21.2-.2 30.5-2.7 24.6-6.6 43.2-20.4 61-45.2 12.5-17.4 18.2-34 20-58 3.4-44.5-21.6-109.5-63.4-164.9-45.7-60.4-107.2-111.1-177.9-146.5-44.5-22.3-95.2-38.4-143.2-45.6-29.2-4.4-69.2-6.2-96.5-4.4zM5004 3512.7c-116.8 6-226.5 53.2-314.7 135.4-39.8 37.1-70.6 77.7-92.3 121.4-26.1 52.4-33.1 99.3-20.6 136.1 3.2 9.6 7.4 17.6 14.1 26.9 17.8 24.8 36.4 38.6 61 45.2 9.3 2.5 11.4 2.7 30.5 2.7 28.9.1 40.4-2 113.9-20.4 22.3-5.5 48.4-11.8 58.2-14 119.6-26.3 222-26.1 341.8.6 11.3 2.5 39.1 9.3 61.6 14.9 65.1 16.4 87.8 20.2 113.8 19.2 34.9-1.3 59.8-14.5 82.2-43.7 14.9-19.3 21.7-38 23.1-63 1.9-33-9.6-74.8-31.8-115.8-8.3-15.4-27.2-43.7-39.1-58.6-58.5-73-140.7-130.8-228.9-161.1-56.7-19.5-118.1-28.7-172.8-25.8zM4218.2 4231.1c-8.4 1.3-20.6 5.8-27.8 10.4-3.3 2.1-13 11-21.9 20-16.6 16.8-28.2 26.9-42.6 37.2-33.1 23.4-66.2 37.6-100.4 42.8-15 2.4-46.6 1.6-60.5-1.4-20.6-4.4-37.9-10.8-57.8-21.1-27.4-14.2-49.1-30.7-75.8-57.6-17.3-17.5-18.4-18.4-27.5-22.7-13.3-6.4-21.1-8.1-35.6-7.5-9.4.4-13.4 1-19.8 3.2-10.2 3.5-20.4 9.9-27.7 17.3-7.8 7.9-10.5 11.6-14.3 19.8-10.7 22.7-9.4 47.4 3.6 69.1 7.7 12.7 34.9 39.9 61.2 60.9 52.6 42.2 114.3 71.1 173.7 81.4 37.9 6.5 79.2 6.1 115.5-1 69.3-13.8 134.7-48.2 193.5-102.1 14.9-13.6 31.2-31.4 35.9-39.2 16.2-27 14-59.7-5.8-84.2-15-18.6-42.1-28.9-65.9-25.3zM850.5 2235c-43.4 9.2-78.1 39.8-91.9 81.1-7.2 21.5-6.7-21.6-6.4 504.1l.3 473.7 8.7-11.3c23.1-29.9 46.7-56.4 75.8-85.6 43.7-43.7 92.4-83.8 142.2-117l18.7-12.5-.2-365c-.3-342.1-.4-365.4-2-372-6.4-25.9-16.4-44.1-33.7-61.5-18.2-18.3-40.5-30.1-65.4-34.5-12.5-2.1-34.5-1.9-46.1.5zM7102.6 2234.6c-24.2 4.4-46.8 16.4-64.6 34.4-17.3 17.4-27.3 35.6-33.7 61.5-1.6 6.6-1.7 29.9-2 372l-.2 365 18.7 12.5c72.6 48.5 142.6 111.3 198.1 177.9 6.1 7.4 15.1 18.5 19.9 24.7l8.7 11.3.3-473.7c.3-525.7.8-482.6-6.4-504.1-13.9-41.6-48.8-72.2-92.3-81.1-11.9-2.4-34.3-2.6-46.5-.4zM1311.5 3063.2c-115.5 39.4-210.1 87.8-292.6 149.5-200.2 149.8-312.3 369.5-337.4 661.3-8.5 99.8-6.2 220 6.1 317 23.8 187.8 82.1 337.6 178.5 458 18 22.5 32.6 38.7 54.4 60.5 28.8 28.8 50.7 47.8 83.8 72.6 72.5 54.4 158.5 100.1 259.9 138 19.9 7.4 54 19 54.5 18.6.2-.2-5.1-12.5-11.8-27.3-76-168.9-129.1-338.6-161.3-515.1-35.8-196-44.7-397.8-26.5-598.3 22.2-244.9 86.1-485.2 189.8-713.8 5.6-12.2 10.1-22.5 10.1-22.7 0-.7-1-.5-7.5 1.7zM6681 3061.5c0 .2 4.5 10.5 10.1 22.7 112 246.8 177.2 505.7 194.4 771.8 5.6 87.3 6 185 1 272-15.6 270.9-79.8 530.8-193.4 783.4-6.7 14.8-12 27.1-11.8 27.3.5.4 34.6-11.2 54.5-18.6 126.5-47.3 225.7-104.6 312.2-180.5 15.5-13.6 49-47.1 62.9-63.1 98-111.9 159.9-246.8 191.1-416.6 21-114.5 27.2-260.4 16.5-385.9-23.7-275.4-124.2-485.4-304.2-635.2-85.8-71.4-195.7-131.3-316.7-172.4-16.9-5.7-16.6-5.7-16.6-4.9z"/></svg>